<svg id="File_Icon" data-name="File Icon" xmlns="http://www.w3.org/2000/svg" xmlns:xlink="http://www.w3.org/1999/xlink" width="421" height="217.99" viewBox="0 0 421 217.99"><defs><style>.cls-1,.cls-2{fill:none;stroke:#50b5e6;stroke-linejoin:round;stroke-width:6px;}.cls-1{stroke-linecap:round;}.cls-3{fill:#92dda1;}.cls-4{font-size:16px;font-family:BarlowSemiCondensed-Regular, Barlow Semi Condensed;}.cls-5{letter-spacing:-0.01em;}.cls-6{letter-spacing:0em;}.cls-7{letter-spacing:0em;}.cls-8{letter-spacing:-0.03em;}.cls-9{letter-spacing:-0.01em;}.cls-10{letter-spacing:-0.01em;}</style><symbol id="File_Icon-2" data-name="File Icon" viewBox="0 0 119 157"><g id="Lines"><line class="cls-1" x1="23" y1="52" x2="96" y2="52"/><line class="cls-1" x1="23" y1="77.33" x2="96" y2="77.33"/><line class="cls-1" x1="23" y1="102.67" x2="96" y2="102.67"/><line class="cls-1" x1="23" y1="128" x2="96" y2="128"/></g><path id="Page" class="cls-2" d="M3,148.08V32L33,3h77.08A5.92,5.92,0,0,1,116,8.92V148.08a5.92,5.92,0,0,1-5.92,5.92H8.92A5.92,5.92,0,0,1,3,148.08Z"/><path id="Fold" class="cls-2" d="M3,32H27.45A5.56,5.56,0,0,0,33,26.45V3Z"/></symbol></defs><title>Artboard 1</title><use width="119" height="157" transform="translate(0 29.37)" xlink:href="#File_Icon-2"/><use width="119" height="157" transform="translate(302 29.37)" xlink:href="#File_Icon-2"/><g id="Arrow_26" data-name="Arrow 26"><path class="cls-3" d="M166.12,121.14h45.59v10.51a2.15,2.15,0,0,0,3.22,1.86l41-23.78a2.14,2.14,0,0,0,0-3.71l-41-23.78a2.15,2.15,0,0,0-3.22,1.86V94.61H166.12A2.15,2.15,0,0,0,164,96.76V119A2.15,2.15,0,0,0,166.12,121.14Z"/><text class="cls-4" transform="translate(37.74 13.6)">Sou<tspan class="cls-5" x="23.46" y="0">r</tspan><tspan class="cls-6" x="28.62" y="0">c</tspan><tspan class="cls-7" x="35.98" y="0">e</tspan></text><text class="cls-4" transform="translate(153.09 214.6)"><tspan class="cls-8">V</tspan><tspan class="cls-7" x="7.73" y="0">amtiger </tspan><tspan class="cls-9" x="59.09" y="0">C</tspan><tspan x="67.41" y="0">o</tspan><tspan class="cls-10" x="75.09" y="0">p</tspan><tspan x="82.8" y="0">y File</tspan></text><text class="cls-4" transform="translate(346.33 13.6)"><tspan class="cls-10">C</tspan><tspan x="8.32" y="0">o</tspan><tspan class="cls-10" x="16" y="0">p</tspan><tspan x="23.71" y="0">y</tspan></text></g></svg>